Coordinates
version=1
nRows=43
nColumns=12
inDegrees=yes

Units are S.I. units (second, meters, Newtons, ...)
Angles are in degrees

endheader
time	SC_y	SC_z	SC_x	AC_y	AC_z	AC_x	GH_y	GH_z	GH_yy	EL_x	PS_y
       0.0               -28.9          12.72          34.21          52.57         -12.92         -13.17          98.76          27.93          41.93          118.9          102.1
   0.02577              -28.91          12.72          34.22          52.57         -12.92         -13.17          98.75          27.93          41.95          118.9          102.1
   0.05153              -28.91          12.72          34.23          52.57         -12.92         -13.16          98.73          27.94          41.97          118.9          102.1
    0.0773              -28.91          12.73          34.23          52.57         -12.92         -13.16          98.72          27.95          41.99          118.9          102.1
    0.1031              -28.92          12.73          34.24          52.57         -12.92         -13.16          98.71          27.96          42.01          118.9          102.1
    0.1288              -28.92          12.74          34.25          52.57         -12.92         -13.15           98.7          27.97          42.04          118.8          102.1
    0.1546              -28.92          12.74          34.25          52.57         -12.92         -13.15          98.68          27.98          42.07          118.8          102.1
    0.1804              -28.93          12.75          34.26          52.57         -12.92         -13.15          98.67          27.99           42.1          118.8          102.1
    0.2061              -28.93          12.75          34.27          52.57         -12.91         -13.14          98.65           28.0          42.13          118.8          102.1
    0.2319              -28.94          12.76          34.28          52.57         -12.91         -13.14          98.63          28.01          42.16          118.8          102.1
    0.2577              -28.94          12.76          34.29          52.57         -12.91         -13.13          98.61          28.02           42.2          118.8          102.1
    0.2834              -28.95          12.77           34.3          52.57         -12.91         -13.13          98.59          28.04          42.23          118.8          102.1
    0.3092              -28.95          12.77          34.31          52.57         -12.91         -13.12          98.57          28.05          42.28          118.8          102.1
     0.335              -28.96          12.78          34.33          52.57         -12.91         -13.12          98.55          28.07          42.32          118.8          102.1
    0.3607              -28.96          12.79          34.34          52.57          -12.9         -13.11          98.52          28.08          42.37          118.8          102.1
    0.3865              -28.97           12.8          34.35          52.57          -12.9         -13.11           98.5           28.1          42.42          118.8          102.1
    0.4123              -28.98          12.81          34.37          52.57          -12.9          -13.1          98.47          28.12          42.48          118.7          102.1
     0.438              -28.99          12.82          34.39          52.57          -12.9         -13.09          98.43          28.14          42.54          118.7          102.1
    0.4638               -29.0          12.83          34.41          52.57         -12.89         -13.08           98.4          28.17          42.61          118.7          102.1
    0.4896              -29.01          12.84          34.43          52.57         -12.89         -13.07          98.36          28.19          42.68          118.7          102.1
    0.5153              -29.02          12.85          34.45          52.57         -12.89         -13.06          98.31          28.22          42.76          118.7          102.1
    0.5411              -29.03          12.87          34.48          52.57         -12.88         -13.05          98.27          28.25          42.85          118.7          102.1
    0.5669              -29.05          12.88          34.51          52.57         -12.88         -13.04          98.22          28.29          42.95          118.6          102.1
    0.5926              -29.06           12.9          34.54          52.57         -12.87         -13.03          98.16          28.33          43.06          118.6          102.1
    0.6184              -29.08          12.92          34.57          52.57         -12.87         -13.01          98.09          28.37          43.19          118.6          102.2
    0.6442               -29.1          12.94          34.61          52.57         -12.86         -12.99          98.02          28.42          43.32          118.5          102.2
    0.6699              -29.12          12.96          34.65          52.57         -12.86         -12.97          97.94          28.47          43.47          118.5          102.2
    0.6957              -29.14          12.99           34.7          52.57         -12.85         -12.95          97.85          28.54          43.65          118.5          102.2
    0.7215              -29.17          13.02          34.76          52.57         -12.84         -12.93          97.75           28.6          43.84          118.4          102.2
    0.7472               -29.2          13.06          34.82          52.57         -12.83          -12.9          97.63          28.68          44.06          118.4          102.2
     0.773              -29.23           13.1          34.89          52.57         -12.82         -12.87           97.5          28.77          44.31          118.3          102.2
    0.7988              -29.27          13.14          34.98          52.57         -12.81         -12.83          97.35          28.87           44.6          118.2          102.3
    0.8245              -29.32           13.2          35.07          52.56         -12.79         -12.79          97.17          28.99          44.94          118.1          102.3
    0.8503              -29.37          13.26          35.18          52.56         -12.77         -12.74          96.97          29.13          45.32          118.1          102.3
    0.8761              -29.44          13.33          35.31          52.56         -12.75         -12.69          96.73          29.29          45.78          117.9          102.4
    0.9018              -29.51          13.41          35.46          52.56         -12.73         -12.62          96.45          29.48          46.31          117.8          102.4
    0.9276               -29.6          13.52          35.64          52.56          -12.7         -12.54          96.11           29.7          46.95          117.7          102.4
    0.9534               -29.7          13.64          35.86          52.56         -12.67         -12.45          95.71          29.97          47.71          117.5          102.5
    0.9791              -29.83          13.78          36.12          52.56         -12.63         -12.33          95.23           30.3          48.63          117.3          102.6
     1.005              -29.99          13.96          36.44          52.56         -12.58         -12.19          94.63           30.7          49.75          117.0          102.7
     1.031              -30.18          14.18          36.84          52.55         -12.52         -12.02           93.9          31.19          51.14          116.7          102.8
     1.056              -30.42          14.46          37.33          52.55         -12.44          -11.8          92.99           31.8          52.87          116.2          102.9
     1.082              -30.72           14.8          37.96          52.55         -12.35         -11.53          91.84          32.57          55.06          115.7          103.1
